<?xml version="1.0" encoding="iso-8859-1"?>
<!-- Generator: Adobe Illustrator 19.0.0, SVG Export Plug-In . SVG Version: 6.00 Build 0)  -->
<svg version="1.1" id="Layer_1" xmlns="http://www.w3.org/2000/svg" xmlns:xlink="http://www.w3.org/1999/xlink" x="0px" y="0px"
	 viewBox="0 0 511.999 511.999" style="enable-background:new 0 0 511.999 511.999;" xml:space="preserve">
<g>
	<g>
		<path d="M344.343,276.922c-47.235,3.774-85.477,42.601-104.739,66.454c-30.84,3.629-60.757,12.146-88.675,25.147
			c0.676-1.713,1.362-3.432,2.064-5.16c25.504-62.809,73.575-148.383,158.893-205.705c30.757,6.336,79.815,10.702,116.496-13.408
			c57.548-37.831,62.828-131.428,62.828-131.428s-88.019-32.264-145.562,5.564c-39.641,26.059-54.484,78.574-59.883,108.737
			c-38.692,26.63-73.264,60.355-102.92,100.488c-10.079,13.641-19.598,28.03-28.529,43.096c-1.693-13.964-4.408-27.843-8.136-41.534
			c15.6-27.273,34.83-72.237,23.472-114.392C151.734,48.286,64.491,13.975,64.491,13.975S6.299,87.469,24.216,153.963
			c12.388,45.977,57.91,76.564,84.828,91.068c9.964,40.037,9.898,81.774-0.156,121.6c-25.299,68.285-31.524,120.76-31.796,123.135
			c-1.253,10.95,6.603,20.836,17.553,22.1c0.776,0.089,1.547,0.133,2.31,0.133c10.001,0,18.632-7.502,19.815-17.675
			c0.047-0.402,3.4-28.281,14.937-68.934c34.407-23.696,74.232-38.363,115.925-42.705c23.9,20.359,64.874,47.881,108.706,44.38
			c68.648-5.482,118.3-84.997,118.3-84.997S412.993,271.44,344.343,276.922z"/>
	</g>
</g>
<g>
</g>
<g>
</g>
<g>
</g>
<g>
</g>
<g>
</g>
<g>
</g>
<g>
</g>
<g>
</g>
<g>
</g>
<g>
</g>
<g>
</g>
<g>
</g>
<g>
</g>
<g>
</g>
<g>
</g>
</svg>
