<?xml version="1.0" encoding="UTF-8"?>
<!DOCTYPE svg PUBLIC "-//W3C//DTD SVG 1.1//EN" "http://www.w3.org/Graphics/SVG/1.1/DTD/svg11.dtd">
<svg version="1.1" xmlns="http://www.w3.org/2000/svg" xmlns:xlink="http://www.w3.org/1999/xlink" x="0" y="0" width="40" height="40" viewBox="0, 0, 40, 40">
  <g id="Layer_1">
    <path d="M-119.232,-26.732 L-116.232,-26.732 C-114.852,-26.732 -113.732,-25.613 -113.732,-24.232 L-113.732,-24.232 C-113.732,-22.852 -114.852,-21.732 -116.232,-21.732 L-119.232,-21.732 C-120.613,-21.732 -121.732,-22.852 -121.732,-24.232 L-121.732,-24.232 C-121.732,-25.613 -120.613,-26.732 -119.232,-26.732 z" fill="#FFE967"/>
    <path d="M-120.482,-26.732 L-120.482,-26.732 C-119.792,-26.732 -119.232,-26.173 -119.232,-25.482 L-119.232,-25.482 C-119.232,-24.792 -119.792,-24.232 -120.482,-24.232 L-120.482,-24.232 C-121.173,-24.232 -121.732,-24.792 -121.732,-25.482 L-121.732,-25.482 C-121.732,-26.173 -121.173,-26.732 -120.482,-26.732 z" fill="#FFE967"/>
    <path d="M10,0 L30,0 C35.523,0 40,4.477 40,10 L40,30 C40,35.523 35.523,40 30,40 L10,40 C4.477,40 0,35.523 0,30 L0,10 C0,4.477 4.477,0 10,0 z" fill="#00CA24"/>
  </g>
  <g id="Layer_2">
    <text transform="matrix(1, 0, 0, 1, 20, 23.447)">
      <tspan x="-19.078" y="3" font-family="LucidaGrande" font-size="24" fill="#000000">&lt;&gt;</tspan>
    </text>
  </g>
</svg>
