<?xml version="1.0" encoding="UTF-8"?>
<!DOCTYPE svg PUBLIC "-//W3C//DTD SVG 1.1//EN" "http://www.w3.org/Graphics/SVG/1.1/DTD/svg11.dtd">
<svg version="1.1" xmlns="http://www.w3.org/2000/svg" xmlns:xlink="http://www.w3.org/1999/xlink" x="0" y="0" width="40" height="39.792" viewBox="0, 0, 110.421, 109.846">
  <defs>
    <linearGradient id="Gradient_1" gradientUnits="userSpaceOnUse" x1="55.549" y1="77.07" x2="110.149" y2="131.853" gradientTransform="matrix(1, 0, 0, 1, -44.938, -67.469)">
      <stop offset="0" stop-color="#387EB8"/>
      <stop offset="1" stop-color="#366994"/>
    </linearGradient>
    <linearGradient id="Gradient_2" gradientUnits="userSpaceOnUse" x1="89.137" y1="111.921" x2="147.777" y2="168.101" gradientTransform="matrix(1, 0, 0, 1, -44.938, -67.469)">
      <stop offset="0" stop-color="#FFE052"/>
      <stop offset="1" stop-color="#FFC331"/>
    </linearGradient>
  </defs>
  <g id="Calque_1">
    <path d="M54.812,-0 C26.781,0 28.531,12.156 28.531,12.156 L28.563,24.75 L55.312,24.75 L55.312,28.531 L17.938,28.531 C17.938,28.531 0,26.497 0,54.781 C-0,83.066 15.656,82.062 15.656,82.062 L25,82.062 L25,68.938 C25,68.938 24.496,53.281 40.406,53.281 C56.316,53.281 66.938,53.281 66.938,53.281 C66.938,53.281 81.844,53.522 81.844,38.875 C81.844,24.228 81.844,14.656 81.844,14.656 C81.844,14.656 84.107,-0 54.812,-0 z M40.062,8.469 C42.724,8.469 44.875,10.62 44.875,13.281 C44.875,15.943 42.724,18.094 40.062,18.094 C37.401,18.094 35.25,15.943 35.25,13.281 C35.25,10.62 37.401,8.469 40.062,8.469 z" fill="url(#Gradient_1)" id="path8615"/>
    <path d="M55.609,109.846 C83.64,109.846 81.89,97.69 81.89,97.69 L81.859,85.096 L55.109,85.096 L55.109,81.315 L92.484,81.315 C92.484,81.315 110.421,83.349 110.421,55.065 C110.421,26.781 94.765,27.784 94.765,27.784 L85.421,27.784 L85.421,40.909 C85.421,40.909 85.925,56.565 70.015,56.565 C54.105,56.565 43.484,56.565 43.484,56.565 C43.484,56.565 28.577,56.324 28.577,70.971 C28.577,85.618 28.577,95.19 28.577,95.19 C28.577,95.19 26.314,109.846 55.609,109.846 z M70.359,101.377 C67.697,101.377 65.546,99.226 65.546,96.565 C65.546,93.903 67.697,91.752 70.359,91.752 C73.02,91.752 75.171,93.903 75.171,96.565 C75.171,99.226 73.02,101.377 70.359,101.377 z" fill="url(#Gradient_2)" id="path8620"/>
  </g>
</svg>
